<svg width="81" height="80" viewBox="0 0 81 80" fill="none" xmlns="http://www.w3.org/2000/svg">
<path d="M15.0464 47.3615C15.0464 47.2015 15.0464 47.0681 15.0464 46.9348C15.0464 43.8415 15.033 40.7348 15.0597 37.6415C15.0597 37.1081 14.8064 36.6948 14.593 36.2548C13.473 33.9881 12.3397 31.7215 11.2064 29.4415C11.0197 29.0815 10.8464 28.7215 10.6597 28.3481C10.4997 28.0281 10.473 27.6948 10.5664 27.3481C10.9664 25.8681 11.3797 24.3881 11.7664 22.9081C12.0997 21.6415 12.4064 20.3615 12.7397 19.0948C13.193 17.3615 13.6597 15.6415 14.1264 13.9215C14.2997 13.2815 14.9397 12.9081 15.5797 13.0815C17.0464 13.4815 18.513 13.8948 19.9797 14.2948C21.0064 14.5748 22.0464 14.8415 23.0864 15.1215C24.3397 15.4681 25.593 15.8148 26.8464 16.1615C27.4464 16.3215 28.033 16.4815 28.633 16.6548C29.193 16.8148 29.5797 17.3881 29.4464 17.9615C29.233 18.8681 28.993 19.7615 28.753 20.6548C28.713 20.8281 28.6597 21.0148 28.6064 21.2281C29.3397 21.4281 30.033 21.6281 30.7397 21.8148C32.0997 22.1748 33.473 22.5215 34.833 22.8948C36.2197 23.2681 37.593 23.6681 38.9664 24.0415C39.3797 24.1481 39.753 24.1881 40.193 23.9615C41.3797 23.3348 42.6597 23.2015 43.9664 23.4948C45.5397 23.8548 46.793 24.7215 47.6597 26.0948C47.8197 26.3481 48.0197 26.4548 48.2864 26.5348C49.1664 26.7615 50.0597 27.0015 50.9397 27.2415C51.473 27.3881 51.993 27.9881 51.7397 28.7615C51.5664 29.3215 50.9797 29.6415 50.3397 29.4948C49.8997 29.4015 49.4597 29.2681 49.033 29.1615C48.913 29.1348 48.7797 29.1081 48.593 29.0681C48.6864 29.5615 48.7664 30.0015 48.8597 30.4415C48.9264 30.7615 48.9797 31.0681 49.073 31.3748C49.113 31.4948 49.2197 31.6415 49.313 31.6681C50.5397 32.0015 51.7664 32.3081 52.993 32.6415C54.233 32.9748 55.473 33.3348 56.713 33.6681C57.953 34.0015 59.2064 34.3081 60.4597 34.6415C60.953 34.7748 61.433 34.9215 61.9264 35.0681C62.033 35.0948 62.1397 35.0948 62.2064 35.1081C62.3797 34.3748 62.5397 33.6548 62.713 32.8681C62.513 32.8015 62.233 32.7215 61.953 32.6415C61.433 32.4948 60.8997 32.3748 60.393 32.1881C59.6597 31.9081 59.6064 31.2948 59.753 30.7081C59.8864 30.1881 60.553 29.8415 61.1264 29.9881C62.0464 30.2281 62.953 30.4948 63.873 30.7348C64.2064 30.8281 64.5264 30.9481 64.8597 30.9881C65.1397 31.0148 65.433 30.9481 65.6997 30.8681C66.5397 30.6281 67.3397 30.8281 68.0864 31.1615C69.9397 32.0015 70.873 33.9215 70.3797 35.8948C70.033 37.2681 69.1397 38.1881 67.8464 38.7215C67.6864 38.7881 67.593 38.8548 67.593 39.0415C67.593 41.7615 67.593 44.4815 67.593 47.2015C67.593 47.2548 67.6064 47.3081 67.6197 47.3881C67.9797 47.3881 68.3397 47.3881 68.6864 47.3881C69.4464 47.4015 69.9264 47.8815 69.9264 48.6415C69.9264 54.3348 69.9264 60.0148 69.9264 65.7081C69.9264 66.4415 69.4197 66.9481 68.6997 66.9481C67.1664 66.9481 65.633 66.9481 64.0997 66.9481C63.393 66.9481 62.8864 66.4415 62.8864 65.7348C62.8864 60.0281 62.8864 54.3081 62.8864 48.6015C62.8864 47.8815 63.3664 47.4015 64.0997 47.3881C64.4597 47.3748 64.833 47.3881 65.2197 47.3881C65.233 47.2415 65.233 47.1348 65.233 47.0281C65.233 44.4015 65.233 41.7881 65.233 39.1615C65.233 38.9081 65.1797 38.7615 64.913 38.6815C64.6597 38.6015 64.393 38.4681 64.193 38.2948C63.6197 37.8015 62.8864 37.7348 62.2064 37.5348C61.2997 37.2815 60.393 37.0415 59.4864 36.8015C58.0464 36.4148 56.6064 36.0415 55.1797 35.6548C54.0997 35.3615 53.033 35.0681 51.953 34.7748C51.2064 34.5748 50.4597 34.3881 49.6197 34.1615C51.3664 42.7748 53.0864 51.3348 54.833 59.9348C54.9664 59.9348 55.0864 59.9348 55.2064 59.9348C56.2997 59.9348 57.4064 59.9348 58.4997 59.9348C59.233 59.9348 59.7264 60.4415 59.7264 61.1615C59.7264 62.6815 59.7264 64.2015 59.7264 65.7215C59.7264 66.4415 59.2064 66.9481 58.4864 66.9481C47.9797 66.9481 37.4597 66.9481 26.953 66.9481C26.233 66.9481 25.7397 66.4548 25.7397 65.7481C25.7397 64.2148 25.7397 62.6815 25.7397 61.1481C25.7397 60.4415 26.233 59.9481 26.953 59.9348C28.0464 59.9348 29.153 59.9348 30.2464 59.9348C30.3664 59.9348 30.4864 59.9348 30.633 59.9348C32.6064 50.1748 34.5797 40.4281 36.553 30.6681C35.6197 30.4148 34.7397 30.1881 33.8464 29.9481C32.593 29.6148 31.3397 29.2681 30.0864 28.9215C29.0597 28.6415 28.0197 28.3748 26.9797 28.1081C26.8997 28.0948 26.713 28.2148 26.6864 28.3081C26.393 29.3615 26.153 30.4281 25.833 31.4681C25.7397 31.7748 25.513 32.0948 25.2464 32.2681C22.8864 33.8681 20.4997 35.4681 18.0997 37.0148C17.5397 37.3748 17.3797 37.7215 17.3797 38.3615C17.4197 41.2415 17.4064 44.1215 17.393 46.9881C17.393 47.3215 17.4864 47.4015 17.8064 47.3881C18.8464 47.3748 19.8997 47.3748 20.9397 47.3881C21.7664 47.3881 22.2197 47.8415 22.2197 48.6548C22.2197 54.3215 22.2197 59.9881 22.233 65.6548C22.233 66.4015 21.6597 66.9481 20.953 66.9481C17.8997 66.9215 14.8464 66.9348 11.793 66.9348C11.0064 66.9348 10.5264 66.4681 10.5264 65.6681C10.5264 59.9881 10.5264 54.3081 10.5264 48.6415C10.5264 47.8415 10.993 47.3881 11.7797 47.3748C12.7397 47.3748 13.6864 47.3748 14.6464 47.3748C14.7664 47.3881 14.8864 47.3748 15.0464 47.3615ZM16.673 35.1348C16.9664 34.9481 17.233 34.7748 17.4997 34.6015C19.4997 33.2815 21.4864 31.9481 23.473 30.6281C23.593 30.5481 23.6864 30.4015 23.7264 30.2681C23.9397 29.4815 24.1397 28.6948 24.353 27.9081C24.6864 26.6681 25.0464 25.4415 25.3797 24.2148C25.8064 22.6548 26.2197 21.1081 26.6197 19.5481C26.6997 19.2415 26.7664 18.9215 26.833 18.6015C25.5664 18.2548 24.3664 17.9348 23.153 17.6148C21.9797 17.2948 20.8064 16.9881 19.6464 16.6548C18.593 16.3615 17.5397 16.0681 16.4864 15.7748C16.1397 15.6815 16.073 15.7481 15.993 16.0948C15.7264 17.1748 15.4464 18.2548 15.153 19.3348C14.8197 20.5748 14.473 21.8015 14.1397 23.0281C13.753 24.4415 13.4064 25.8681 13.0064 27.2815C12.9264 27.5481 12.953 27.7748 13.073 28.0148C14.2597 30.3481 15.4464 32.6948 16.673 35.1348ZM19.8464 64.5881C19.8464 59.6281 19.8464 54.6948 19.8464 49.7481C17.513 49.7481 15.193 49.7481 12.8597 49.7481C12.8597 54.7081 12.8597 59.6415 12.8597 64.5881C15.193 64.5881 17.513 64.5881 19.8464 64.5881ZM35.4864 47.7215C34.713 51.5215 33.953 55.2815 33.193 59.0548C33.2197 59.0681 33.2597 59.0948 33.2864 59.1081C38.4597 56.9481 43.633 54.7748 48.8064 52.6148C48.8064 52.5881 48.8064 52.5615 48.8064 52.5215C44.3797 50.9348 39.9397 49.3348 35.4864 47.7215ZM28.0864 64.5881C37.8464 64.5881 47.593 64.5881 57.353 64.5881C57.353 63.8148 57.353 63.0548 57.353 62.2948C47.5797 62.2948 37.8464 62.2948 28.0864 62.2948C28.0864 63.0681 28.0864 63.8148 28.0864 64.5881ZM50.513 50.6548C50.473 50.3615 50.4464 50.1348 50.4064 49.9081C50.233 49.0415 50.0464 48.1881 49.8597 47.3215C49.7264 46.6681 49.6197 46.0148 49.4864 45.3615C49.313 44.4815 49.0864 43.6148 48.9397 42.7348C48.8864 42.4148 48.8064 42.3748 48.5264 42.4681C47.153 42.9615 45.793 43.4281 44.4197 43.9215C43.0197 44.4148 41.6197 44.9081 40.2197 45.4015C39.5397 45.6415 38.8597 45.8815 38.1797 46.1215C38.1797 46.1481 38.1797 46.1748 38.1797 46.2015C42.273 47.6815 46.353 49.1615 50.513 50.6548ZM51.2464 54.1481C46.673 56.0548 42.153 57.9481 37.633 59.8415C37.633 59.8548 37.6464 59.8815 37.6464 59.8948C42.5664 59.8948 47.473 59.8948 52.4197 59.8948C52.033 57.9748 51.6464 56.0815 51.2464 54.1481ZM67.553 64.6015C67.553 59.6415 67.553 54.6948 67.553 49.7615C66.7664 49.7615 66.0064 49.7615 65.233 49.7615C65.233 54.7215 65.233 59.6548 65.233 64.6015C66.0064 64.6015 66.7664 64.6015 67.553 64.6015ZM42.6864 32.7348C44.6997 32.7215 46.2064 31.1481 46.233 29.2548C46.2597 27.3348 44.7397 25.7081 42.7397 25.7081C40.7797 25.6948 39.2197 27.2548 39.2064 29.1881C39.2064 31.1881 40.7797 32.6948 42.6864 32.7348ZM37.833 36.1348C41.2864 37.1348 44.713 38.1215 48.2064 39.1215C48.113 38.6015 48.033 38.1615 47.953 37.7348C47.8197 37.0548 47.673 36.3748 47.5397 35.6948C47.4064 35.0548 47.2997 34.4148 47.153 33.7748C47.0597 33.3615 46.9264 33.3348 46.6064 33.6148C45.6597 34.4281 44.5664 34.9348 43.3397 35.0548C41.8064 35.2015 40.4064 34.8015 39.193 33.8548C38.9397 33.6681 38.713 33.4548 38.4464 33.2281C38.2197 34.2148 38.033 35.1348 37.833 36.1348ZM45.7797 40.9615C45.7664 40.9215 45.7664 40.8948 45.753 40.8548C42.9664 40.0548 40.1664 39.2415 37.3664 38.4415C36.9664 40.4415 36.5664 42.3748 36.1664 44.3615C39.4197 43.2148 42.593 42.0815 45.7797 40.9615ZM27.3664 25.7748C30.593 26.6415 33.753 27.4815 36.833 28.3081C37.113 27.6015 37.3664 26.9748 37.6197 26.3615C37.6864 26.2015 37.6997 26.1081 37.4864 26.0548C36.6997 25.8548 35.913 25.6548 35.1264 25.4415C34.273 25.2148 33.433 24.9748 32.5797 24.7348C31.633 24.4815 30.6864 24.2148 29.7397 23.9615C29.1664 23.8148 28.593 23.6681 27.9664 23.5215C27.7664 24.2815 27.5797 25.0148 27.3664 25.7748ZM66.3797 36.6148C67.313 36.6548 68.1664 35.8015 68.1397 34.8548C68.113 33.8281 67.3264 33.1215 66.3797 33.1215C65.393 33.1215 64.6464 33.9081 64.633 34.8815C64.633 35.8015 65.473 36.6548 66.3797 36.6148Z" fill="black"/>
<path d="M55.74 30.8805C55.0333 30.9338 54.5533 30.2538 54.5667 29.7205C54.5667 29.0938 55.1 28.5605 55.7267 28.5471C56.3533 28.5338 56.9 29.0671 56.9133 29.6938C56.9133 30.2538 56.4333 30.9338 55.74 30.8805Z" fill="black"/>
<path d="M43.8863 29.242C43.873 29.882 43.3396 30.4153 42.6996 30.402C42.073 30.3886 41.5396 29.8286 41.553 29.202C41.5663 28.562 42.0996 28.0553 42.7663 28.0686C43.393 28.0686 43.8996 28.602 43.8863 29.242Z" fill="black"/>
</svg>
