<svg width="160" height="161" viewBox="0 0 160 161" fill="none" xmlns="http://www.w3.org/2000/svg">
<path d="M132.88 104.981C133.946 105.301 134.906 105.488 135.786 105.888C138.746 107.168 140.48 110.714 139.866 113.781C139.146 117.461 135.973 119.888 132.24 119.861C108.266 119.834 84.2931 119.834 60.3197 119.834C58.7731 119.834 57.1997 119.834 55.6531 119.834C54.7997 119.834 54.1064 119.221 53.9464 118.421C53.7864 117.621 54.1331 116.848 54.9064 116.501C55.2797 116.341 55.7331 116.341 56.1331 116.341C63.6797 116.341 71.2531 116.341 78.7997 116.341C92.2664 116.341 105.733 116.341 119.2 116.368C123.653 116.368 128.08 116.368 132.533 116.341C134.933 116.314 136.56 114.421 136.48 112.341C136.4 110.421 134.746 108.714 132.8 108.661C131.413 108.634 130.053 108.661 128.666 108.661C122.213 108.661 115.786 108.661 109.333 108.661C108.373 108.661 107.653 108.074 107.44 107.248C107.173 106.288 107.973 105.274 109.04 105.168C109.28 105.141 109.52 105.141 109.76 105.141C115.973 105.141 122.213 105.141 128.426 105.141C128.72 105.141 128.986 105.114 129.306 105.088C129.253 104.101 129.253 103.194 129.146 102.314C128.96 100.714 128.773 99.1142 128.48 97.5142C128.08 95.3542 127.653 93.1676 127.12 91.0342C126.56 88.7676 125.946 86.5009 125.173 84.3142C124.373 82.0742 123.413 79.8876 122.426 77.7542C120.8 74.2609 118.8 70.9809 116.32 68.0209C115.04 66.4742 113.6 65.0342 112.24 63.5409C112.106 63.4076 111.946 63.3009 111.733 63.1142C111.6 63.7542 111.466 64.3142 111.413 64.8742C111.146 66.9009 110.933 68.9276 110.666 70.9542C110.373 73.2742 110.053 75.6209 109.733 77.9409C109.413 80.2342 109.146 82.5542 108.8 84.8476C108.586 86.2076 108.533 87.6209 107.653 88.8209C106.4 90.5276 104.693 91.1676 102.666 90.8476C100.906 90.5542 99.6797 89.4876 98.9331 87.8076C98.3197 86.4476 98.6131 85.1142 98.7731 83.7542C98.9597 82.1542 99.2264 80.5542 99.4397 78.9542C99.7864 76.3409 100.16 73.7276 100.506 71.1142C100.853 68.4742 101.2 65.8342 101.546 63.2209C101.813 61.2476 102.08 59.2742 102.373 57.3009C102.426 56.9009 102.346 56.6342 102 56.5009C99.4131 55.5409 96.8264 54.6076 94.2397 53.6742C94.2131 53.6742 94.1597 53.6742 94.0264 53.7009C93.8931 55.2476 93.7597 56.7942 93.5997 58.3676C93.2264 62.4476 92.8797 66.5542 92.5064 70.6342C92.3731 72.0742 92.2664 73.5142 92.1597 74.9542C91.9197 77.7009 91.7864 80.4476 91.4397 83.1676C90.9597 86.9809 89.0931 89.9409 85.7064 91.8876C83.5464 93.1142 81.1997 93.6209 78.7197 93.3009C74.3197 92.7409 71.2264 90.3942 69.3864 86.3676C68.5331 84.5009 68.4797 82.4476 68.3197 80.4476C68.0264 77.1676 67.7331 73.9142 67.4664 70.6342C67.3331 69.1942 67.2531 67.7542 67.1197 66.3142C66.9331 64.2609 66.7464 62.2076 66.5864 60.1542C66.4531 58.5542 66.3197 56.9809 66.1864 55.3809C66.1331 54.8209 66.0531 54.2609 65.9731 53.5676C64.3731 54.1009 62.8531 54.5542 61.3864 55.0876C60.2664 55.4876 59.1997 56.0209 58.1331 56.4742C57.7064 56.6609 57.5464 56.8742 57.6531 57.3809C57.8931 58.7676 58.0531 60.1542 58.2664 61.5409C58.3997 62.5542 58.5331 63.5676 58.7197 64.5542C58.9864 65.9142 58.1597 67.0342 56.8797 67.0076C56.0531 66.9809 55.3597 66.2876 55.2264 65.3809C54.7464 61.9142 54.2931 58.4476 53.8397 54.9809C53.7064 54.0742 52.9864 53.4342 52.1864 53.5409C51.2797 53.6742 50.7197 54.5009 50.8531 55.3809C51.0664 56.7409 51.2797 58.1009 51.4664 59.4609C51.7597 61.5409 52.0264 63.6209 52.2931 65.7276C52.6397 68.4476 52.9864 71.1676 53.3597 73.8876C53.7064 76.4476 54.1064 79.0076 54.4531 81.5942C54.6397 83.0076 54.8531 84.4476 55.0131 85.8609C55.1464 87.0076 55.7597 87.5409 56.7997 87.4076C57.6264 87.3009 58.0797 86.4476 57.9464 85.4076C57.5731 82.7676 57.2531 80.1276 56.8797 77.5142C56.6664 75.9676 56.4531 74.3942 56.2131 72.8476C56.0264 71.6742 56.6664 70.6876 57.7331 70.5276C58.7464 70.3942 59.5731 71.1942 59.7331 72.3409C60.1331 75.4342 60.5597 78.5276 60.9864 81.6209C61.1731 82.9809 61.4664 84.3409 61.5197 85.7009C61.6264 88.2609 59.6797 90.7676 56.8797 90.9276C54.5064 91.0609 52.6931 89.7809 51.8397 87.7276C51.6264 87.2209 51.5731 86.6609 51.4931 86.1009C51.1997 83.9676 50.9064 81.8342 50.6131 79.7276C50.3464 77.7809 50.1064 75.8609 49.8664 73.9142C49.5997 71.9409 49.3331 69.9676 49.0397 67.9942C48.8531 66.5542 48.6397 65.0876 48.4531 63.6476C48.4264 63.5142 48.3997 63.4076 48.3464 63.1676C48.1331 63.3276 47.9464 63.4609 47.7864 63.5942C44.2131 66.9809 41.3331 70.9009 38.9597 75.1942C37.1464 78.4742 35.6531 81.9142 34.4797 85.4609C33.6797 87.8609 33.0131 90.3142 32.5064 92.7942C31.8664 95.8876 31.4131 99.0342 30.9331 102.154C30.7731 103.114 30.7731 104.101 30.6931 105.114C31.0664 105.141 31.4131 105.168 31.7331 105.168C54.9864 105.168 78.2131 105.168 101.466 105.168C101.92 105.168 102.4 105.194 102.826 105.354C103.626 105.621 104.08 106.474 103.946 107.248C103.786 108.021 103.066 108.661 102.293 108.688C101.973 108.714 101.626 108.688 101.306 108.688C76.7997 108.688 52.2931 108.688 27.7864 108.688C26.1064 108.688 24.8531 109.328 24.0531 110.821C22.8797 113.034 24.3197 115.754 26.5331 116.181C27.0931 116.288 27.6797 116.368 28.2397 116.368C34.9597 116.368 41.7064 116.368 48.4264 116.368C49.5464 116.368 50.1864 116.821 50.3731 117.754C50.5864 118.768 49.8664 119.728 48.8531 119.861C48.6664 119.888 48.5064 119.888 48.3197 119.888C41.4664 119.888 34.5864 119.888 27.7331 119.888C25.5997 119.888 23.7331 119.194 22.2397 117.674C18.7198 114.128 19.7864 108.021 24.3197 105.914C25.0664 105.568 25.9197 105.408 26.7197 105.221C27.0931 105.141 27.2531 105.008 27.2797 104.634C27.3864 103.434 27.4664 102.234 27.6264 101.061C27.8931 99.0076 28.1597 96.9276 28.5597 94.9009C29.0397 92.4209 29.5731 89.9142 30.2397 87.4876C31.4664 83.0876 33.1197 78.8476 35.2264 74.7942C37.1731 71.0876 39.3864 67.5676 42.2131 64.4476C43.8664 62.6342 45.7064 60.9809 47.4397 59.2476C47.6531 59.0342 47.8131 58.6876 47.8131 58.4209C47.7597 57.5142 47.6264 56.6076 47.4931 55.7276C46.9597 52.2609 50.1597 49.2742 53.5731 50.1276C54.9864 50.4742 56.0531 51.3009 56.7997 52.5542C56.9064 52.7142 57.0131 52.9009 57.0664 53.0076C59.9731 51.9942 62.8531 50.9542 65.8131 49.9142C65.7597 49.0876 65.7331 48.1276 65.6264 47.1942C65.2264 44.0476 67.8397 41.2209 71.0664 41.2209C77.1464 41.2742 83.2531 41.2476 89.3331 41.2209C92.3997 41.1942 95.0664 43.8342 94.7731 47.0076C94.6664 47.9942 94.6131 48.9809 94.5331 49.9142C97.4664 50.9542 100.346 51.9676 103.2 52.9542C103.76 52.3409 104.266 51.5942 104.96 51.0342C107.546 48.9809 111.306 50.0742 112.56 53.1409C113.146 54.5809 112.906 56.0209 112.64 57.4342C112.426 58.5809 112.426 58.8476 113.28 59.5942C117.626 63.3276 121.12 67.7542 123.946 72.7142C125.52 75.4609 126.906 78.3142 127.973 81.3009C128.693 83.2742 129.466 85.2476 130.026 87.2742C130.693 89.7009 131.226 92.1542 131.706 94.6342C132.16 96.9809 132.48 99.3542 132.826 101.701C132.8 102.768 132.8 103.941 132.88 104.981ZM79.9997 44.6609C76.9597 44.6609 73.9197 44.6609 70.8797 44.6609C69.6797 44.6609 68.9064 45.4076 68.9864 46.6076C69.0664 48.2342 69.1997 49.8876 69.3597 51.5142C69.7064 55.5676 70.0797 59.6476 70.4531 63.7009C70.7197 66.7942 70.9597 69.8876 71.2264 72.9809C71.4931 76.1276 71.7597 79.3009 72.1064 82.4476C72.2131 83.4609 72.4797 84.5009 72.9331 85.4076C74.6397 88.7409 77.9731 90.2876 81.6797 89.6209C84.5864 89.0876 87.2797 86.5276 87.7864 83.6209C88.1331 81.5676 88.2664 79.4876 88.4797 77.4076C88.6131 75.9942 88.6931 74.5809 88.8264 73.1676C89.1731 69.0609 89.5464 64.9542 89.9197 60.8476C90.1064 58.6609 90.2664 56.4742 90.4531 54.2876C90.6664 51.7809 90.9064 49.2476 91.0931 46.7409C91.1997 45.3542 90.4531 44.6609 89.0664 44.6609C85.9997 44.6609 82.9864 44.6609 79.9997 44.6609ZM103.573 87.3276C104.426 87.3276 104.96 86.7142 105.093 85.7542C105.413 83.1142 105.786 80.4742 106.133 77.8609C106.4 75.9142 106.666 73.9676 106.933 72.0209C107.28 69.3542 107.626 66.7142 107.973 64.0476C108.373 61.0876 108.8 58.1276 109.2 55.1676C109.306 54.2876 108.746 53.6209 107.893 53.4876C107.146 53.3809 106.4 53.9142 106.293 54.7409C106.026 56.5009 105.786 58.2876 105.546 60.0742C105.2 62.6609 104.88 65.2476 104.533 67.8342C104.16 70.5276 103.786 73.2209 103.413 75.9142C103.226 77.2476 103.093 78.6076 102.906 79.9409C102.64 81.8609 102.32 83.8076 102.08 85.7276C101.973 86.6076 102.693 87.3276 103.573 87.3276Z" fill="white"/>
</svg>
