<svg width="160" height="160" viewBox="0 0 160 160" fill="none" xmlns="http://www.w3.org/2000/svg">
<path d="M29.0928 94.721C29.0928 94.401 29.0928 94.1343 29.0928 93.8677C29.0928 87.681 29.0661 81.4676 29.1194 75.281C29.1194 74.2143 28.6128 73.3876 28.1861 72.5077C25.9461 67.9743 23.6794 63.441 21.4128 58.881C21.0394 58.161 20.6928 57.441 20.3194 56.6943C19.9994 56.0543 19.9461 55.3877 20.1328 54.6943C20.9328 51.7343 21.7594 48.7743 22.5328 45.8143C23.1994 43.281 23.8128 40.721 24.4794 38.1877C25.3861 34.721 26.3194 31.281 27.2528 27.841C27.5994 26.561 28.8794 25.8143 30.1594 26.161C33.0928 26.961 36.0261 27.7877 38.9594 28.5877C41.0128 29.1477 43.0928 29.681 45.1728 30.241C47.6794 30.9343 50.1861 31.6277 52.6928 32.321C53.8928 32.641 55.0661 32.961 56.2661 33.3077C57.3861 33.6277 58.1594 34.7743 57.8928 35.921C57.4661 37.7343 56.9861 39.521 56.5061 41.3077C56.4261 41.6543 56.3194 42.0277 56.2128 42.4543C57.6794 42.8543 59.0661 43.2543 60.4794 43.6277C63.1994 44.3477 65.9461 45.041 68.6661 45.7877C71.4394 46.5343 74.1861 47.3343 76.9328 48.081C77.7594 48.2943 78.5061 48.3743 79.3861 47.921C81.7594 46.6677 84.3194 46.401 86.9328 46.9877C90.0794 47.7077 92.5861 49.441 94.3194 52.1877C94.6394 52.6943 95.0394 52.9077 95.5728 53.0677C97.3328 53.521 99.1194 54.001 100.879 54.481C101.946 54.7743 102.986 55.9743 102.479 57.521C102.133 58.641 100.959 59.281 99.6794 58.9877C98.7994 58.801 97.9194 58.5343 97.0661 58.321C96.8261 58.2677 96.5594 58.2143 96.1861 58.1343C96.3728 59.121 96.5328 60.001 96.7194 60.881C96.8528 61.521 96.9594 62.1343 97.1461 62.7477C97.2261 62.9877 97.4394 63.281 97.6261 63.3343C100.079 64.001 102.533 64.6143 104.986 65.281C107.466 65.9477 109.946 66.6677 112.426 67.3343C114.906 68.001 117.413 68.6143 119.919 69.281C120.906 69.5476 121.866 69.841 122.853 70.1343C123.066 70.1877 123.279 70.1876 123.413 70.2143C123.759 68.7477 124.079 67.3077 124.426 65.7343C124.026 65.601 123.466 65.441 122.906 65.281C121.866 64.9877 120.799 64.7477 119.786 64.3743C118.319 63.8143 118.213 62.5877 118.506 61.4143C118.773 60.3743 120.106 59.681 121.253 59.9743C123.093 60.4543 124.906 60.9877 126.746 61.4677C127.413 61.6543 128.053 61.8943 128.719 61.9743C129.279 62.0277 129.866 61.8943 130.399 61.7343C132.079 61.2543 133.679 61.6543 135.173 62.321C138.879 64.001 140.746 67.841 139.759 71.7877C139.066 74.5343 137.279 76.3743 134.693 77.441C134.373 77.5743 134.186 77.7076 134.186 78.081C134.186 83.521 134.186 88.961 134.186 94.401C134.186 94.5077 134.213 94.6143 134.239 94.7743C134.959 94.7743 135.679 94.7743 136.373 94.7743C137.893 94.801 138.853 95.761 138.853 97.281C138.853 108.668 138.853 120.028 138.853 131.414C138.853 132.881 137.839 133.894 136.399 133.894C133.333 133.894 130.266 133.894 127.199 133.894C125.786 133.894 124.773 132.881 124.773 131.468C124.773 120.054 124.773 108.614 124.773 97.201C124.773 95.761 125.733 94.801 127.199 94.7743C127.919 94.7477 128.666 94.7743 129.439 94.7743C129.466 94.481 129.466 94.2677 129.466 94.0543C129.466 88.801 129.466 83.5743 129.466 78.321C129.466 77.8143 129.359 77.521 128.826 77.361C128.319 77.201 127.786 76.9343 127.386 76.5877C126.239 75.601 124.773 75.4677 123.413 75.0677C121.599 74.561 119.786 74.081 117.973 73.601C115.093 72.8277 112.213 72.081 109.359 71.3077C107.199 70.721 105.066 70.1343 102.906 69.5476C101.413 69.1476 99.9194 68.7743 98.2394 68.321C101.733 85.5477 105.173 102.668 108.666 119.868C108.933 119.868 109.173 119.868 109.413 119.868C111.599 119.868 113.813 119.868 115.999 119.868C117.466 119.868 118.453 120.881 118.453 122.321C118.453 125.361 118.453 128.401 118.453 131.441C118.453 132.881 117.413 133.894 115.973 133.894C94.9594 133.894 73.9194 133.894 52.9061 133.894C51.4661 133.894 50.4794 132.908 50.4794 131.494C50.4794 128.428 50.4794 125.361 50.4794 122.294C50.4794 120.881 51.4661 119.894 52.9061 119.868C55.0928 119.868 57.3061 119.868 59.4928 119.868C59.7328 119.868 59.9728 119.868 60.2661 119.868C64.2128 100.348 68.1594 80.8543 72.1061 61.3343C70.2394 60.8277 68.4794 60.3743 66.6928 59.8943C64.1861 59.2277 61.6794 58.5343 59.1728 57.841C57.1194 57.281 55.0394 56.7477 52.9594 56.2143C52.7994 56.1877 52.4261 56.4277 52.3728 56.6143C51.7861 58.721 51.3061 60.8543 50.6661 62.9343C50.4794 63.5477 50.0261 64.1877 49.4928 64.5343C44.7728 67.7343 39.9994 70.9343 35.1994 74.0277C34.0794 74.7477 33.7594 75.441 33.7594 76.721C33.8394 82.481 33.8128 88.241 33.7861 93.9743C33.7861 94.641 33.9728 94.801 34.6128 94.7743C36.6928 94.7477 38.7994 94.7477 40.8794 94.7743C42.5328 94.7743 43.4394 95.681 43.4394 97.3077C43.4394 108.641 43.4394 119.974 43.4661 131.308C43.4661 132.801 42.3194 133.894 40.9061 133.894C34.7994 133.841 28.6928 133.868 22.5861 133.868C21.0128 133.868 20.0528 132.934 20.0528 131.334C20.0528 119.974 20.0528 108.614 20.0528 97.281C20.0528 95.681 20.9861 94.7743 22.5594 94.7477C24.4794 94.7477 26.3728 94.7477 28.2928 94.7477C28.5328 94.7743 28.7728 94.7477 29.0928 94.721ZM32.3461 70.2677C32.9328 69.8943 33.4661 69.5477 33.9994 69.201C37.9994 66.561 41.9728 63.8943 45.9461 61.2543C46.1861 61.0943 46.3728 60.801 46.4528 60.5343C46.8794 58.961 47.2794 57.3877 47.7061 55.8143C48.3728 53.3343 49.0928 50.881 49.7594 48.4277C50.6128 45.3077 51.4394 42.2143 52.2394 39.0943C52.3994 38.481 52.5328 37.841 52.6661 37.201C50.1328 36.5077 47.7328 35.8677 45.3061 35.2277C42.9594 34.5877 40.6128 33.9743 38.2928 33.3077C36.1861 32.721 34.0794 32.1343 31.9728 31.5477C31.2794 31.361 31.1461 31.4943 30.9861 32.1877C30.4528 34.3477 29.8928 36.5077 29.3061 38.6677C28.6394 41.1477 27.9461 43.601 27.2794 46.0543C26.5061 48.881 25.8128 51.7343 25.0128 54.561C24.8528 55.0943 24.9061 55.5477 25.1461 56.0277C27.5194 60.6943 29.8928 65.3877 32.3461 70.2677ZM38.6928 129.174C38.6928 119.254 38.6928 109.388 38.6928 99.4943C34.0261 99.4943 29.3861 99.4943 24.7194 99.4943C24.7194 109.414 24.7194 119.281 24.7194 129.174C29.3861 129.174 34.0261 129.174 38.6928 129.174ZM69.9728 95.441C68.4261 103.041 66.9061 110.561 65.3861 118.108C65.4394 118.134 65.5194 118.188 65.5728 118.214C75.9194 113.894 86.2661 109.548 96.6128 105.228C96.6128 105.174 96.6128 105.121 96.6128 105.041C87.7594 101.868 78.8794 98.6677 69.9728 95.441ZM55.1728 129.174C74.6928 129.174 94.1861 129.174 113.706 129.174C113.706 127.628 113.706 126.108 113.706 124.588C94.1594 124.588 74.6928 124.588 55.1728 124.588C55.1728 126.134 55.1728 127.628 55.1728 129.174ZM100.026 101.308C99.9461 100.721 99.8928 100.268 99.8128 99.8143C99.4661 98.081 99.0928 96.3743 98.7194 94.641C98.4528 93.3343 98.2394 92.0277 97.9728 90.721C97.6261 88.961 97.1728 87.2277 96.8794 85.4677C96.7728 84.8277 96.6128 84.7477 96.0528 84.9343C93.3061 85.921 90.5861 86.8543 87.8394 87.841C85.0394 88.8277 82.2394 89.8143 79.4394 90.801C78.0794 91.281 76.7194 91.761 75.3594 92.241C75.3594 92.2943 75.3594 92.3476 75.3594 92.401C83.5461 95.361 91.7061 98.321 100.026 101.308ZM101.493 108.294C92.3461 112.108 83.3061 115.894 74.2661 119.681C74.2661 119.708 74.2928 119.761 74.2928 119.788C84.1328 119.788 93.9461 119.788 103.839 119.788C103.066 115.948 102.293 112.161 101.493 108.294ZM134.106 129.201C134.106 119.281 134.106 109.388 134.106 99.521C132.533 99.521 131.013 99.521 129.466 99.521C129.466 109.441 129.466 119.308 129.466 129.201C131.013 129.201 132.533 129.201 134.106 129.201ZM84.3728 65.4677C88.3994 65.441 91.4128 62.2943 91.4661 58.5077C91.5194 54.6677 88.4794 51.4143 84.4794 51.4143C80.5594 51.3877 77.4394 54.5077 77.4128 58.3743C77.4128 62.3743 80.5594 65.3877 84.3728 65.4677ZM74.6661 72.2677C81.5728 74.2677 88.4261 76.241 95.4128 78.241C95.2261 77.201 95.0661 76.321 94.9061 75.4677C94.6394 74.1077 94.3461 72.7477 94.0794 71.3877C93.8128 70.1077 93.5994 68.8277 93.3061 67.5477C93.1194 66.721 92.8528 66.6677 92.2128 67.2277C90.3194 68.8543 88.1328 69.8677 85.6794 70.1077C82.6128 70.401 79.8128 69.601 77.3861 67.7077C76.8794 67.3343 76.4261 66.9077 75.8928 66.4543C75.4394 68.4277 75.0661 70.2677 74.6661 72.2677ZM90.5594 81.921C90.5328 81.841 90.5328 81.7877 90.5061 81.7076C84.9328 80.1077 79.3328 78.481 73.7328 76.881C72.9328 80.881 72.1328 84.7477 71.3328 88.721C77.8394 86.4277 84.1861 84.161 90.5594 81.921ZM53.7328 51.5477C60.1861 53.281 66.5061 54.961 72.6661 56.6143C73.2261 55.201 73.7328 53.9477 74.2394 52.721C74.3728 52.401 74.3994 52.2143 73.9728 52.1077C72.3994 51.7077 70.8261 51.3077 69.2528 50.881C67.5461 50.4277 65.8661 49.9477 64.1594 49.4677C62.2661 48.961 60.3728 48.4277 58.4794 47.921C57.3328 47.6277 56.1861 47.3343 54.9328 47.041C54.5328 48.561 54.1594 50.0277 53.7328 51.5477ZM131.759 73.2277C133.626 73.3077 135.333 71.601 135.279 69.7077C135.226 67.6543 133.653 66.241 131.759 66.241C129.786 66.241 128.293 67.8143 128.266 69.761C128.266 71.601 129.946 73.3077 131.759 73.2277Z" fill="white"/>
<path d="M110.48 61.7609C109.067 61.8676 108.107 60.5076 108.133 59.4409C108.133 58.1876 109.2 57.1209 110.453 57.0942C111.707 57.0676 112.8 58.1342 112.827 59.3876C112.827 60.5076 111.867 61.8676 110.48 61.7609Z" fill="white"/>
<path d="M86.7726 58.48C86.746 59.76 85.6793 60.8267 84.3993 60.8C83.146 60.7733 82.0793 59.6533 82.106 58.4C82.1326 57.12 83.1993 56.1067 84.5326 56.1333C85.786 56.1333 86.7993 57.2 86.7726 58.48Z" fill="white"/>
</svg>
