<svg width="160" height="160" viewBox="0 0 160 160" fill="none" xmlns="http://www.w3.org/2000/svg">
<path d="M43.2267 20C43.2267 25.8133 43.2267 31.5467 43.2267 37.3333C43.4934 37.36 43.7067 37.3867 43.92 37.3867C49.8934 37.3867 55.8667 37.3867 61.84 37.4133C62.4267 37.4133 62.5867 37.2533 62.5867 36.6667C62.56 31.44 62.5867 26.2133 62.5867 21.0133C62.5867 20.72 62.5867 20.4533 62.5867 20.1067C66.4534 20.1067 70.2667 20.1067 74.1867 20.1067C74.1867 20.4 74.1867 20.6933 74.1867 20.9867C74.1867 35.44 74.1867 49.92 74.16 64.3733C74.16 65.04 74.3467 65.4667 74.96 65.8133C75.8134 66.2933 76.6134 66.9067 77.4134 67.4667C77.5734 67.5733 77.76 67.68 78.08 67.8933C78.08 64.7467 78.08 61.76 78.08 58.7467C80.6934 58.7467 83.2 58.7467 85.7867 58.7467C85.7867 54.9067 85.7867 51.12 85.7867 47.28C103.893 47.28 121.893 47.28 139.947 47.28C139.947 60.1333 139.947 72.9867 139.947 85.92C131.6 85.92 123.307 85.92 114.933 85.92C115.547 87.0133 116.213 87.9733 116.667 89.0133C117.253 90.3733 117.707 91.8133 118.16 93.2267C118.293 93.68 118.533 93.6533 118.853 93.6533C120.773 93.6533 122.667 93.6533 124.587 93.6533C125.947 93.6533 127.307 93.6267 128.64 93.6533C131.573 93.7067 134.08 96.1867 134.133 99.12C134.187 101.84 134.187 104.587 134.133 107.307C134.107 109.76 132.48 111.947 130.107 112.587C129.067 112.88 127.92 112.827 126.827 112.88C126.213 112.907 125.573 112.853 124.96 112.907C124.8 112.907 124.507 113.147 124.507 113.307C124.48 114.453 124.48 115.6 124.48 116.827C124.8 116.827 125.013 116.827 125.253 116.827C127.627 116.827 130 116.827 132.373 116.827C135.36 116.827 138.213 118.693 139.387 121.68C139.76 122.613 139.867 123.707 139.92 124.72C140 127.147 139.947 129.573 139.947 131.973C139.92 135.653 137.893 138.533 134.427 139.653C133.653 139.92 132.773 139.973 131.947 139.973C123.52 140 115.093 140 106.693 140C98.56 140 90.4267 140 82.2934 140C79.4667 140 77.1734 138.907 75.52 136.587C75.2534 136.213 74.96 136.053 74.5334 136.053C70.8 136.053 67.0667 136.08 63.3334 136.053C62.8267 136.053 62.5334 136.213 62.48 136.72C62.2934 138.507 60.48 140 58.5334 140C52.9334 139.973 47.3334 140.027 41.7334 139.973C38.5867 139.947 35.7601 138.827 33.6267 136.507C31.0401 133.707 28.5867 130.8 26.2134 127.84C23.8934 124.907 23.4401 121.52 24.2134 117.92C24.3201 117.413 24.5067 116.907 24.7467 116.427C24.9601 116 24.8534 115.733 24.5867 115.413C23.5201 114.107 22.4001 112.827 21.4401 111.44C18.7201 107.52 19.8934 102.267 24.0534 99.6267C26.4801 98.08 28.9067 96.56 31.3601 95.04C31.7334 94.8 31.8667 94.6133 31.7601 94.16C31.6267 93.5733 31.6001 92.96 31.6001 92.3733C31.6001 68.5333 31.6001 44.6933 31.5734 20.8533C31.5734 20.16 31.7601 20 32.4267 20.0267C35.7601 20.0533 39.0934 20.0533 42.4267 20.0533C42.6934 20 42.9067 20 43.2267 20ZM89.6534 116.8C89.6534 115.573 89.68 114.427 89.6267 113.307C89.6267 113.147 89.3067 112.907 89.12 112.88C88.4 112.827 87.6534 112.88 86.9334 112.853C86.1067 112.827 85.2534 112.96 84.48 112.747C81.5734 111.947 79.9734 109.6 80 106.933C80.0267 104.587 79.9734 102.213 80.0267 99.8667C80.0534 98.24 79.8934 96.6933 79.28 95.1467C78.3467 92.7733 77.4134 90.4 76.0534 88.24C75.84 87.8933 75.6267 87.7067 75.1734 87.7067C67.4667 87.7333 59.76 87.7333 52.0534 87.7067C51.6267 87.7067 51.36 87.84 51.12 88.16C49.44 90.2933 47.76 92.4 46.08 94.5067C45.0667 95.7867 44.08 97.0933 42.6934 98C42.5867 98.08 42.5867 98.4533 42.6134 98.6667C42.8001 99.6 43.0934 100.48 43.2 101.413C43.3067 102.507 43.2267 103.627 43.2267 104.747C43.2267 105.067 43.3067 105.253 43.68 105.333C45.0134 105.707 46.1334 106.427 46.9067 107.573C47.9734 109.147 48.08 111.013 48.5867 112.747C48.96 114.053 49.2534 115.387 49.6 116.747C50.2134 116.747 50.7467 116.773 51.3067 116.747C52.6667 116.667 53.8134 116.133 54.5067 114.88C54.9067 114.16 55.2534 113.44 55.6534 112.72C57.2 109.893 60.8267 108.373 63.9467 109.2C65.44 109.6 66.7734 110.267 67.76 111.44C68.6667 112.533 69.7067 112.907 71.12 112.827C72.9067 112.747 74.64 113.253 76.0267 114.48C76.88 115.227 77.5467 116.16 78.2934 117.04C78.5334 117.307 78.6934 117.413 79.0934 117.28C79.92 117.013 80.8 116.8 81.68 116.773C83.2267 116.693 84.8 116.747 86.3467 116.747C87.4134 116.8 88.48 116.8 89.6534 116.8ZM107.12 136.053C115.387 136.053 123.653 136.053 131.92 136.053C132.453 136.053 133.013 136.08 133.493 135.893C135.2 135.227 136.107 133.947 136.133 132.08C136.133 129.6 136.16 127.093 136.107 124.613C136.08 123.947 135.92 123.253 135.627 122.667C134.88 121.12 133.467 120.587 131.84 120.587C115.36 120.587 98.88 120.587 82.3734 120.587C82.2667 120.587 82.16 120.587 82.0534 120.587C79.7067 120.747 78.0534 122.32 78.08 124.613C78.1067 127.147 78.0534 129.68 78.1067 132.213C78.1067 132.8 78.24 133.413 78.5067 133.92C79.2267 135.44 80.5067 136.08 82.2134 136.08C90.5067 136.053 98.8 136.053 107.12 136.053ZM107.093 109.067C114.027 109.067 120.96 109.04 127.893 109.093C129.493 109.093 130.4 108.053 130.373 106.667C130.32 104.4 130.373 102.133 130.347 99.8667C130.347 98.16 129.573 97.4133 127.867 97.4133C123.893 97.4133 119.92 97.4133 115.947 97.4133C115.467 97.4133 115.253 97.3067 115.093 96.7733C114.533 94.7467 114.107 92.6667 113.227 90.8C110.613 85.3067 106.08 82.4533 100.107 82C97.3334 81.7867 94.6667 82.4267 92.1867 83.7867C87.4134 86.3733 84.5334 90.3733 84.0534 95.76C83.7334 99.4933 83.8934 103.253 83.8934 107.013C83.8934 108.347 84.7467 109.12 86.1067 109.12C93.0934 109.067 100.08 109.04 107.093 109.067ZM58.6667 132.267C58.3467 132.267 58.1067 132.267 57.8667 132.267C55.28 132.267 52.72 132.24 50.1334 132.293C49.6 132.293 49.3867 132.08 49.3067 131.6C49.1467 130.853 48.96 130.08 48.7734 129.333C48.4267 127.947 48.0267 126.56 47.68 125.173C47.3334 123.733 47.0134 122.293 46.64 120.853C46.2934 119.413 45.92 118 45.5467 116.56C45.0134 114.507 44.5334 112.453 43.9467 110.4C43.6 109.173 42.4534 108.693 41.3334 109.253C38.4 110.693 35.4667 112.213 32.5334 113.627C30.9601 114.373 29.6534 115.413 28.8001 116.933C27.0401 120.08 27.4934 123.573 29.8934 126.32C31.7067 128.373 33.4934 130.453 35.2534 132.587C37.1734 134.933 39.52 136.16 42.64 136.08C47.7067 135.973 52.7734 136.053 57.84 136.053C58.1067 136.053 58.3467 136.053 58.6667 136.053C58.6667 134.773 58.6667 133.573 58.6667 132.267ZM74.1867 132.213C74.1867 131.893 74.1867 131.653 74.1867 131.413C74.1867 129.147 74.1867 126.88 74.1867 124.613C74.1867 123.387 74.3734 122.16 75.0134 121.12C75.5467 120.267 75.4934 119.68 74.8534 118.88C73.7867 117.493 72.5867 116.64 70.7734 116.8C69.92 116.88 69.04 116.853 68.1867 116.8C67.84 116.773 67.4667 116.613 67.2267 116.4C66.4267 115.68 65.7067 114.853 64.9334 114.107C63.4667 112.64 61.44 112.48 59.8667 113.813C59.2534 114.32 58.8267 115.12 58.48 115.84C57.0134 118.88 54.72 120.64 51.2267 120.613C50.7734 120.613 50.6134 120.773 50.72 121.2C50.7734 121.413 50.8 121.627 50.8534 121.84C51.3334 123.787 51.8667 125.733 52.2934 127.68C52.4267 128.24 52.64 128.347 53.12 128.347C54.9067 128.32 56.6667 128.32 58.4534 128.347C60.48 128.4 62.1867 129.493 62.5067 131.68C62.5867 132.16 62.7734 132.293 63.2534 132.293C66.6934 132.267 70.1334 132.293 73.5734 132.293C73.7334 132.267 73.92 132.24 74.1867 132.213ZM59.5467 61.2C57.28 60 54.0534 60.72 52.6134 63.0933C51.1734 65.4933 49.76 67.92 48.32 70.3467C45.8934 74.4533 43.4934 78.5867 41.0934 82.6933C39.3601 85.6533 37.5734 88.56 35.8667 91.5467C34.8267 93.36 36.1067 95.4667 38.1867 95.4667C39.7867 95.4667 41.0134 94.6933 41.9734 93.4933C46.9334 87.28 51.8934 81.0667 56.88 74.88C57.28 74.3733 57.3334 74.08 56.8534 73.5733C53.6 70.0267 54.2667 64.24 58.88 61.5733C59.0934 61.44 59.28 61.3333 59.5467 61.2ZM81.4667 89.9733C81.6267 89.6267 81.7334 89.44 81.8134 89.2533C82.8267 87.04 84.24 85.0933 86.0267 83.4133C86.3467 83.0933 86.4 82.8533 86.1334 82.4533C85.52 81.6 85.04 80.64 84.4 79.8133C79.0934 72.64 72.2667 67.5467 63.7867 64.72C61.7867 64.0533 59.6534 65.12 58.9334 67.1467C58.24 69.12 59.3334 71.28 61.3334 72.0267C62.8267 72.5867 64.2934 73.1733 65.7067 73.8667C72.2134 77.04 77.1467 81.8667 80.5334 88.2667C80.8 88.8 81.12 89.3333 81.4667 89.9733ZM35.5467 23.92C35.5467 44.0533 35.5467 64.1067 35.5467 84.1333C35.7334 84.1067 35.7867 84.0267 35.84 83.92C36.88 82.1333 37.9467 80.3733 38.9601 78.5867C39.2001 78.16 39.3334 77.6 39.3334 77.0933C39.3601 59.7067 39.3601 42.32 39.3601 24.9067C39.3601 24.72 39.4134 24.48 39.3334 24.32C39.2801 24.16 39.12 23.9467 38.9867 23.9467C37.84 23.92 36.6934 23.92 35.5467 23.92ZM62.56 58.2667C62.5867 57.9733 62.6134 57.7867 62.6134 57.5733C62.6134 54.9867 62.5867 52.3733 62.64 49.7867C62.64 49.2 62.4534 49.04 61.8934 49.04C55.92 49.0667 49.9467 49.04 43.9734 49.0667C43.76 49.0667 43.5467 49.0933 43.3334 49.0933C43.3334 56.4267 43.3334 63.7067 43.3334 71.0933C43.4934 70.9067 43.6 70.8267 43.6534 70.6933C45.4134 67.7067 47.2 64.7467 48.9067 61.7333C51.3334 57.4133 56.1334 55.6533 60.7734 57.4133C61.3067 57.6533 61.8667 57.9467 62.56 58.2667ZM70.3467 63.1467C70.3467 62.72 70.3467 62.4267 70.3467 62.1067C70.3467 52.4 70.3467 42.6933 70.3467 32.9867C70.3467 30.2133 70.32 27.44 70.3467 24.6667C70.3467 24.0533 70.1334 23.8933 69.5734 23.8933C68.8534 23.92 68.1067 23.8933 67.3867 23.8933C66.4534 23.8933 66.4534 23.8933 66.4534 24.8533C66.4534 36.7733 66.4534 48.6933 66.4534 60.64C66.4534 60.8267 66.4267 61.0133 66.4534 61.1733C66.5067 61.36 66.5867 61.6 66.72 61.6533C67.8667 62.1333 69.04 62.6133 70.3467 63.1467ZM93.5734 116.8C95.76 116.8 97.8134 116.8 99.8667 116.8C106.48 116.8 113.12 116.8 119.733 116.8C120.613 116.8 120.613 116.8 120.613 115.947C120.613 115.227 120.613 114.48 120.613 113.76C120.613 112.88 120.613 112.88 119.707 112.88C111.253 112.88 102.827 112.88 94.3734 112.88C94.24 112.88 94.08 112.827 93.9734 112.88C93.8134 112.96 93.5467 113.12 93.5467 113.253C93.5467 114.4 93.5734 115.547 93.5734 116.8ZM101.333 58.64C105.2 58.64 109.013 58.64 112.827 58.64C112.853 58.5067 112.88 58.4267 112.88 58.3467C112.88 56.0533 112.88 53.7867 112.907 51.4933C112.907 50.96 112.613 50.96 112.213 50.96C108.773 50.96 105.333 50.96 101.893 50.96C101.733 50.96 101.547 50.9867 101.333 51.0133C101.333 53.5467 101.333 56.08 101.333 58.64ZM112.96 74.16C112.96 76.7467 112.96 79.28 112.96 81.84C116.827 81.84 120.64 81.84 124.507 81.84C124.507 79.3867 124.507 76.9867 124.507 74.5867C124.507 74.1067 124.187 74.1333 123.867 74.1333C121.147 74.1333 118.453 74.1333 115.733 74.1333C114.853 74.16 113.92 74.16 112.96 74.16ZM128.293 58.64C128.32 58.5333 128.347 58.4533 128.347 58.3467C128.347 56.0267 128.347 53.7333 128.373 51.4133C128.373 50.9067 128.08 50.9333 127.707 50.9333C125.013 50.9333 122.347 50.9333 119.653 50.9333C118.72 50.9333 117.787 50.9333 116.827 50.9333C116.827 53.52 116.827 56.0533 116.827 58.6133C120.667 58.64 124.48 58.64 128.293 58.64ZM109.067 62.64C109.04 62.9333 109.013 63.12 109.013 63.3067C109.013 65.4133 109.04 67.52 109.013 69.6267C109.013 70.1867 109.173 70.4 109.76 70.3733C113.12 70.3467 116.453 70.3467 119.813 70.3733C120.427 70.3733 120.64 70.2133 120.613 69.6C120.587 67.52 120.587 65.44 120.613 63.3333C120.613 62.72 120.4 62.5867 119.84 62.6133C116.48 62.64 113.093 62.6133 109.733 62.6133C109.547 62.64 109.36 62.64 109.067 62.64ZM124.507 62.64C124.507 65.1467 124.507 67.5467 124.507 69.9467C124.507 70.4267 124.827 70.4 125.147 70.4C128.533 70.4 131.947 70.3733 135.333 70.4C135.973 70.4 136.133 70.16 136.107 69.6C136.08 67.5467 136.08 65.4667 136.107 63.4133C136.107 62.7733 135.867 62.64 135.307 62.64C131.947 62.6667 128.613 62.64 125.253 62.64C125.04 62.64 124.827 62.64 124.507 62.64ZM99.3334 62.64C97.6 62.64 95.8667 62.64 94.1334 62.64C93.7067 62.64 93.5467 62.7467 93.5467 63.2C93.5734 65.3867 93.5734 67.5467 93.5467 69.7333C93.5467 70.2667 93.7334 70.4 94.2667 70.4C97.6534 70.3733 101.067 70.3733 104.453 70.4C104.987 70.4 105.147 70.2133 105.147 69.7067C105.12 67.5467 105.12 65.3867 105.147 63.2533C105.147 62.7733 104.987 62.64 104.533 62.64C102.8 62.64 101.067 62.64 99.3334 62.64ZM54.6934 83.76C60.6934 83.76 66.5867 83.76 72.5867 83.76C72.3734 83.52 72.2667 83.3867 72.16 83.2533C69.1467 80.1333 65.6 77.84 61.6 76.2133C60.9867 75.9733 60.7734 76.1333 60.4267 76.56C59.28 78.0267 58.1334 79.44 56.9867 80.9067C56.24 81.84 55.4934 82.7467 54.6934 83.76ZM43.2534 45.12C43.8667 45.12 44.4267 45.12 44.9867 45.12C50.6134 45.12 56.24 45.12 61.84 45.12C62.4267 45.12 62.64 44.9867 62.5867 44.3733C62.5334 43.6 62.5334 42.8267 62.5867 42.0533C62.6134 41.44 62.4 41.3067 61.84 41.3067C55.8667 41.3333 49.8934 41.3067 43.92 41.3333C43.7067 41.3333 43.4934 41.36 43.2534 41.36C43.2534 42.6133 43.2534 43.8133 43.2534 45.12ZM27.0667 112.48C28.5601 111.573 29.8134 110.773 31.0934 110.027C31.4401 109.813 31.6001 109.6 31.6001 109.2C31.5734 108.107 31.5734 107.013 31.6001 105.947C31.6267 103.787 31.6534 101.627 31.6801 99.4667C31.6801 99.4667 31.5467 99.4933 31.4134 99.5733C29.5467 100.747 27.6801 101.867 25.8401 103.093C24.0267 104.293 23.2534 106.427 24.2134 108.373C24.9867 109.893 26.1867 111.2 27.0667 112.48ZM89.7067 58.64C92.2934 58.64 94.8267 58.64 97.36 58.64C97.36 56.0533 97.36 53.5467 97.36 51.0133C94.8 51.0133 92.2667 51.0133 89.7067 51.0133C89.7067 53.5467 89.7067 56.0533 89.7067 58.64ZM85.7867 62.64C84.6667 62.64 83.5734 62.64 82.4534 62.64C82.08 62.64 81.8934 62.7467 81.8934 63.1733C81.92 65.3867 81.92 67.6 81.8934 69.84C81.8934 70.2933 82.08 70.4 82.5067 70.4C84.6934 70.4 86.8534 70.3733 89.04 70.4C89.52 70.4 89.6534 70.2133 89.6534 69.7867C89.6534 67.6 89.6534 65.3867 89.6534 63.2C89.6534 62.8 89.5201 62.64 89.12 62.6667C88.0267 62.64 86.9067 62.64 85.7867 62.64ZM128.427 81.8933C130.907 81.8933 133.28 81.8933 135.653 81.8933C136.08 81.8933 136.107 81.6533 136.107 81.3333C136.107 79.1467 136.107 76.9867 136.107 74.8C136.107 74.2667 135.92 74.1333 135.387 74.1333C133.28 74.16 131.173 74.16 129.067 74.1333C128.507 74.1333 128.347 74.32 128.347 74.8533C128.373 76.9867 128.347 79.12 128.347 81.2533C128.373 81.4667 128.4 81.6533 128.427 81.8933ZM109.04 80.6667C109.04 78.5867 109.013 76.72 109.04 74.8267C109.04 74.32 108.88 74.16 108.347 74.16C105.12 74.1867 101.92 74.16 98.6934 74.16C97.3867 74.16 97.3867 74.16 97.3867 75.4667C97.3867 76.3467 97.3867 77.2267 97.3867 78.1867C101.547 77.8133 105.36 78.6133 109.04 80.6667ZM84.96 74.16C85.04 74.3467 85.0667 74.4533 85.12 74.5067C86.5334 76.48 87.9734 78.4533 89.4134 80.4C89.4934 80.5067 89.8134 80.5067 90 80.4267C91.04 80 92.0267 79.4933 93.0934 79.0933C93.4667 78.96 93.5734 78.7733 93.5734 78.4267C93.5734 77.6267 93.5734 76.8267 93.5734 76.0267C93.5734 74.1333 93.5734 74.1333 91.7067 74.1333C89.4934 74.16 87.28 74.16 84.96 74.16ZM132.293 50.96C132.293 53.5733 132.293 56.1067 132.293 58.64C133.573 58.64 134.8 58.64 136.107 58.64C136.107 56.1867 136.107 53.76 136.08 51.36C136.08 51.2267 135.787 50.9867 135.627 50.9867C134.56 50.9333 133.467 50.96 132.293 50.96ZM35.4934 107.813C36.8267 107.147 38 106.56 39.2001 105.947C39.2801 105.893 39.3334 105.707 39.3334 105.6C39.3334 104.053 39.36 102.507 39.2534 100.96C39.2 99.9733 38.3734 99.3867 37.3601 99.4133C36.3467 99.44 35.5201 100.107 35.4934 101.093C35.4667 103.253 35.4934 105.413 35.4934 107.813Z" fill="white"/>
<path d="M107.067 134.16C103.974 134.267 101.28 131.493 101.28 128.373C101.28 125.28 103.974 122.587 107.067 122.613C110.214 122.613 112.88 125.253 112.88 128.4C112.907 131.44 110.267 134.24 107.067 134.16ZM107.094 126.427C106.054 126.427 105.147 127.36 105.147 128.4C105.147 129.44 106.107 130.427 107.12 130.32C108.24 130.213 108.96 129.573 109.014 128.4C109.067 127.36 108.107 126.427 107.094 126.427Z" fill="white"/>
<path d="M122.64 122.612C125.707 122.506 128.4 125.226 128.373 128.452C128.347 131.492 125.733 134.212 122.48 134.159C119.44 134.106 116.72 131.466 116.773 128.266C116.827 125.252 119.467 122.426 122.64 122.612ZM120.64 128.399C120.747 129.652 121.52 130.266 122.613 130.292C123.653 130.319 124.507 129.386 124.507 128.372C124.507 127.332 123.573 126.426 122.56 126.426C121.52 126.426 120.64 127.359 120.64 128.399Z" fill="white"/>
<path d="M91.6535 122.614C94.7468 122.481 97.4402 125.254 97.4135 128.427C97.3868 131.441 94.8001 134.187 91.5468 134.161C88.5068 134.134 85.8135 131.467 85.8135 128.347C85.8135 125.254 88.4802 122.454 91.6535 122.614ZM89.6801 128.267C89.6268 129.281 90.4535 130.214 91.5468 130.294C92.5068 130.374 93.4668 129.494 93.5468 128.481C93.6268 127.467 92.7468 126.481 91.7335 126.427C90.6935 126.374 89.7335 127.227 89.6801 128.267Z" fill="white"/>
<path d="M113.173 105.067C104.667 105.067 96.2666 105.067 87.7599 105.067C87.7599 104.827 87.7599 104.587 87.7599 104.347C87.7599 102.134 87.7332 99.8937 87.7599 97.6804C87.8132 92.4537 90.2399 88.6404 95.0132 86.667C99.0132 85.0137 102.933 85.6004 106.427 88.2404C108.507 89.8137 109.867 91.9204 110.48 94.4804C111.093 96.9337 111.707 99.4137 112.347 101.867C112.613 102.907 112.88 103.947 113.173 105.067ZM94.7732 101.334C95.6532 101.334 96.5599 101.334 97.4399 101.334C97.8132 101.334 97.9732 101.227 98.0799 100.854C98.3732 99.8137 98.7732 98.827 99.1199 97.787C99.9199 95.4137 100.72 93.0137 101.493 90.6404C101.653 90.187 101.52 89.947 101.013 89.867C99.9466 89.6804 98.9332 89.627 97.8666 89.8404C95.0399 90.3737 92.5599 92.507 91.9732 95.2537C91.5999 97.067 91.7066 98.987 91.5999 100.88C91.5732 101.28 91.8132 101.36 92.1599 101.334C93.0399 101.307 93.9199 101.334 94.7732 101.334ZM105.227 92.4004C105.147 92.4004 105.067 92.427 104.987 92.427C104 95.3604 103.04 98.267 102.027 101.28C104.107 101.28 106.107 101.28 108.267 101.28C107.253 98.2404 107.253 94.987 105.227 92.4004Z" fill="white"/>
<path d="M118.747 101.359C121.307 101.359 123.814 101.359 126.374 101.359C126.374 102.586 126.374 103.813 126.374 105.093C123.84 105.093 121.307 105.093 118.747 105.093C118.747 103.839 118.747 102.639 118.747 101.359Z" fill="white"/>
<path d="M62.5597 120.587C61.333 120.667 60.6396 119.521 60.6396 118.667C60.6663 117.627 61.5197 116.801 62.5597 116.801C63.6263 116.801 64.533 117.681 64.5063 118.721C64.5063 119.601 63.733 120.667 62.5597 120.587Z" fill="white"/>
<path d="M68.3998 128.32C67.3065 128.32 66.4531 127.493 66.4531 126.427C66.4531 125.36 67.3331 124.533 68.4265 124.533C69.4665 124.533 70.3198 125.387 70.3198 126.427C70.2931 127.333 69.5998 128.4 68.3998 128.32Z" fill="white"/>
</svg>
