<svg width="68" height="80" viewBox="0 0 68 80" fill="none" xmlns="http://www.w3.org/2000/svg">
<path d="M13.167 21.3333C13.167 9.8274 22.4944 0.5 34.0003 0.5C45.5063 0.5 54.8337 9.8274 54.8337 21.3333C54.8337 32.8393 45.5063 42.1667 34.0003 42.1667C22.4944 42.1667 13.167 32.8393 13.167 21.3333ZM34.0003 33.8333C40.9039 33.8333 46.5003 28.2369 46.5003 21.3333C46.5003 14.4298 40.9039 8.83333 34.0003 8.83333C27.0968 8.83333 21.5003 14.4298 21.5003 21.3333C21.5003 28.2369 27.0968 33.8333 34.0003 33.8333Z" fill="white"/>
<path d="M10.4301 56.0964C4.17889 62.3477 0.666992 70.8261 0.666992 79.6667H9.00033C9.00033 73.0363 11.6342 66.6774 16.3227 61.989C21.0111 57.3006 27.3699 54.6667 34.0003 54.6667C40.6307 54.6667 46.9896 57.3006 51.678 61.989C56.3664 66.6774 59.0003 73.0363 59.0003 79.6667H67.3337C67.3337 70.8261 63.8218 62.3477 57.5706 56.0964C51.3193 49.8452 42.8409 46.3333 34.0003 46.3333C25.1598 46.3333 16.6813 49.8452 10.4301 56.0964Z" fill="white"/>
</svg>
